<?xml version="1.0" encoding="utf-8"?>
<!-- Generator: Adobe Illustrator 24.2.2, SVG Export Plug-In . SVG Version: 6.00 Build 0)  -->
<svg version="1.1" id="Layer_1" xmlns="http://www.w3.org/2000/svg" xmlns:xlink="http://www.w3.org/1999/xlink" x="0px" y="0px"
	 viewBox="0 0 960 560" style="enable-background:new 0 0 960 560;" xml:space="preserve">
<style type="text/css">
	.st0{fill:#29ABE2;stroke:#29ABE2;stroke-width:10;stroke-miterlimit:10;}
	.st1{fill:none;stroke:#29ABE2;stroke-width:10;stroke-miterlimit:10;}
	.st2{fill:none;stroke:#000000;stroke-width:9;stroke-miterlimit:10;}
	.st3{opacity:0.75;fill:none;stroke:url(#SVGID_1_);stroke-width:10;stroke-miterlimit:10;}
	.st4{fill:#285592;}
	.st5{fill:#DC143C;}
</style>
<polygon class="st0" points="78.58,117.28 211,29 343.42,117.28 211,205.56 "/>
<polyline class="st1" points="145.79,161.42 145.79,221.45 212,255 278.21,221.45 278.21,161.42 "/>
<polyline class="st1" points="326.77,131.41 326.77,187.91 309.11,209.09 326.77,230.28 344.42,209.09 327.21,188.35 "/>
<linearGradient id="SVGID_1_" gradientUnits="userSpaceOnUse" x1="316.914" y1="287.7359" x2="882.6759" y2="287.7359">
	<stop  offset="0" style="stop-color:#CCE0F4"/>
	<stop  offset="0.0641" style="stop-color:#C3DCF2"/>
	<stop  offset="0.1706" style="stop-color:#A9D2EE"/>
	<stop  offset="0.3066" style="stop-color:#80C2E7"/>
	<stop  offset="0.4649" style="stop-color:#47ACDE"/>
	<stop  offset="0.5674" style="stop-color:#1E9CD7"/>
	<stop  offset="0.8652" style="stop-color:#0075BE"/>
	<stop  offset="0.9944" style="stop-color:#005B97"/>
</linearGradient>
<polyline class="st3" points="350,208 579.1,212.59 579.1,149.5 871,288 579.42,426 579.1,365.16 317,360.66 "/>
<g>
	<path class="st4" d="M97.67,333.75c2.9,7.62,8.34,11.43,16.32,11.43c3.95,0,7.45-0.92,10.52-2.76c3.07-1.84,6.24-4.46,9.51-7.88
		l1.64,3.74c-7.81,9.99-18.14,14.98-31,14.98c-11.59,0-20.73-4.37-27.41-13.11c-6.68-8.74-10.02-21.51-10.02-38.33
		c0-15.89,3.4-28.05,10.21-36.46c6.8-8.41,16.34-12.61,28.6-12.61c6.97,0,12.85,1.71,17.64,5.12c4.79,3.42,8.34,7.98,10.65,13.7
		c2.31,5.71,3.46,12.06,3.46,19.02c0,3.55-0.21,6.83-0.63,9.85H93.19C93.28,315.02,94.77,326.13,97.67,333.75z M95.84,266.54
		c-1.68,6.04-2.56,15.64-2.65,28.77h21.17v-14.78c0-8.01-0.61-13.86-1.83-17.54c-1.22-3.68-3.63-5.52-7.25-5.52
		C100.67,257.48,97.52,260.5,95.84,266.54z"/>
	<path class="st4" d="M203.95,348.13c-1.01-1.84-1.51-4.6-1.51-8.28c-5.38,8.94-12.68,13.4-21.92,13.4
		c-9.24,0-16.61-4.14-22.11-12.42c-5.5-8.28-8.25-21.22-8.25-38.82c0-16.95,2.73-29.4,8.19-37.35c5.46-7.95,12.85-11.92,22.18-11.92
		c5.04,0,9.26,0.92,12.66,2.76c3.4,1.84,6.4,4.21,9.01,7.09v-40.2c0-1.44-0.19-2.43-0.57-2.96c-0.38-0.52-1.2-0.99-2.46-1.38
		l-4.41-1.58v-3.55l30.24-5.91h2.39v134.41c0,1.45,0.19,2.43,0.57,2.96c0.38,0.53,1.2,0.99,2.46,1.38l4.41,1.58v3.55h-25.96
		C206.59,350.89,204.96,349.97,203.95,348.13z M202.18,333.75v-65.23c-4.03-4.99-8.57-7.49-13.61-7.49c-4.62,0-7.86,3.19-9.7,9.56
		c-1.85,6.37-2.77,16.85-2.77,31.43c0,10.38,0.36,18.62,1.07,24.73c0.71,6.11,1.93,10.64,3.65,13.6c1.72,2.96,4.1,4.43,7.12,4.43
		C192.9,344.78,197.65,341.11,202.18,333.75z"/>
	<path class="st4" d="M295.61,263.98c-0.38-0.52-1.2-0.99-2.46-1.38l-4.41-1.58v-3.55l30.49-5.91h2.14v89.87
		c0,1.45,0.19,2.43,0.57,2.96c0.38,0.53,1.2,0.99,2.46,1.38l4.41,1.58v3.55h-25.58c-2.44,0-4.18-0.82-5.23-2.46
		c-1.05-1.64-1.58-4.24-1.58-7.78v-2.17c-3.02,4.07-6.85,7.56-11.47,10.45c-4.62,2.89-9.75,4.34-15.37,4.34
		c-7.81,0-13.4-2.56-16.76-7.69c-3.36-5.12-5.04-12.81-5.04-23.06v-55.58c0-1.44-0.19-2.43-0.57-2.96c-0.38-0.52-1.2-0.99-2.46-1.38
		l-4.41-1.58v-3.55l30.49-5.91h2.14v74.5c0,5.91,0.61,10.12,1.83,12.61c1.22,2.5,3.25,3.74,6.11,3.74c5.04,0,10.12-3.28,15.25-9.85
		v-65.63C296.18,265.49,295.99,264.51,295.61,263.98z"/>
</g>
<g>
	<path class="st5" d="M367.65,250.47c28.37,0,40.32,15.88,40.32,50.08c0,34.2-11.95,50.08-40.32,50.08h-27.18
		c-2.49,0-4.58-2.86-4.58-6.44v-86.99c0-3.72,1.99-6.73,4.58-6.73H367.65z M354.21,270.21v60.67h12.94c17.82,0,22.5-8.87,22.5-30.33
		c0-21.46-4.68-30.33-22.5-30.33H354.21z"/>
	<path class="st5" d="M417.92,257.05c0-3.72,2.09-6.58,4.58-6.58h9.06c2.59,0,4.68,2.86,4.68,6.58v86.99c0,3.58-2.09,6.58-4.68,6.58
		h-9.06c-2.49,0-4.58-2.86-4.58-6.44V257.05z"/>
	<path class="st5" d="M468.49,314v30.05c0,3.58-1.99,6.58-4.58,6.58h-9.16c-2.49,0-4.58-3-4.58-6.58v-86.99
		c0-3.72,1.99-6.58,4.48-6.58h40.12c14.53,0,25.38,12.02,25.38,31.76c0,15.45-8.26,22.61-18.32,25.47
		c4.08,2.15,7.07,7.15,11.05,16.17l8.86,20.17c1.59,3.72,0.9,6.58-1.69,6.58h-11.65c-2.49,0-5.87-2.86-7.47-6.58l-8.26-18.6
		c-2.49-5.58-6.07-11.45-12.34-11.45H468.49z M468.49,270.21v24.04h20.71c5.57,0,12.64-2.86,12.64-12.02
		c0-9.16-7.07-12.02-12.64-12.02H468.49z"/>
	<path class="st5" d="M595.81,257.05v6.58c0,3.72-2.09,6.58-4.58,6.58h-42.31v20.32h36.43c2.49,0,4.58,3,4.58,6.58v6.58
		c0,3.58-2.09,6.58-4.58,6.58h-36.43v20.6h42.21c2.49,0,4.48,2.86,4.48,6.44v6.72c0,3.58-1.99,6.58-4.58,6.58h-55.85
		c-2.59,0-4.58-3-4.58-6.72v-86.99c0-3.58,2.09-6.44,4.58-6.44h56.05C593.72,250.47,595.81,253.33,595.81,257.05z"/>
	<path class="st5" d="M636.82,249.89h10.85c13.54,0,27.97,10.44,27.97,30.76c0,6.44-3.68,7.73-4.98,7.73h-5.77
		c-2.79,0-5.08-1.86-6.97-7.73c-2.19-6.73-5.97-11.02-11.95-11.02h-8.66c-14.33,0-18.22,7.58-18.22,30.91
		c0,23.32,3.88,30.91,18.22,30.91h9.66c5.97,0,9.76-4.29,11.95-11.02c1.89-5.87,4.18-7.73,6.97-7.73h5.77
		c1.29,0,4.98,1.29,4.98,7.73c0,20.32-14.43,30.76-27.97,30.76h-11.85c-23.79,0-36.04-15.88-36.04-50.65
		C600.78,265.78,613.03,249.89,636.82,249.89z"/>
	<path class="st5" d="M744.43,250.47c2.59,0,4.58,2.86,4.58,6.58v6.58c0,3.72-1.99,6.58-4.58,6.58h-21.7v73.97
		c0,3.58-2.09,6.44-4.58,6.44h-9.16c-2.49,0-4.58-2.86-4.58-6.44v-73.97h-21.7c-2.59,0-4.58-2.86-4.58-6.58v-6.58
		c0-3.72,1.99-6.58,4.58-6.58H744.43z"/>
</g>
</svg>
